<svg id="Group_15425" data-name="Group 15425" xmlns="http://www.w3.org/2000/svg" xmlns:xlink="http://www.w3.org/1999/xlink" width="27.683" height="29.055" viewBox="0 0 27.683 29.055">
  <defs>
    <clipPath id="clip-path">
      <path id="Path_15100" data-name="Path 15100" d="M14.7,10.784a3.388,3.388,0,1,1,3.423,2.376h0q-.1.005-.19.005A3.384,3.384,0,0,1,14.7,10.784M17.9,0q-.264,0-.53.016-.226.013-.454.035a8.978,8.978,0,0,0-1.461.267.636.636,0,0,1-.068.013l-.044.007-.033.009-.569.177L14.38.669a9.752,9.752,0,0,0-3.372,2.216A10.258,10.258,0,0,0,9.086,5.634c-.194.4-.384.8-.575,1.194l-.337.7L4.134,15.925,2.109,20.119a.451.451,0,0,0,.743.5l5.658-6.05a.1.1,0,0,1,.068-.033.094.094,0,0,1,.045.009.1.1,0,0,1,.051.125L.079,27.8a.889.889,0,0,0,1.346,1.076c2.209-1.666,8.524-6.454,9.655-7.363a.091.091,0,0,1,.053-.02.1.1,0,0,1,.086.154c-.059.124-1.458,3.031-1.571,3.32a.353.353,0,0,0,.127.429.382.382,0,0,0,.253.079.432.432,0,0,0,.192-.06q1.438-.828,2.877-1.653l5.1-2.927q1.572-.9,3.146-1.8c.21-.12.421-.237.633-.354.315-.174.629-.347.937-.531a9.745,9.745,0,0,0,4.77-8.613,9.513,9.513,0,0,0-.254-2.007,9.743,9.743,0,0,0-2.512-4.58A9.39,9.39,0,0,0,22.6,1.186,9.74,9.74,0,0,0,17.968,0Z" transform="translate(0)" fill="#06b4ef"/>
    </clipPath>
  </defs>
  <g id="Group_15417" data-name="Group 15417" clip-path="url(#clip-path)">
    <rect id="Rectangle_10007" data-name="Rectangle 10007" width="38.821" height="39.252" transform="translate(-12.946 7.774) rotate(-31.141)" fill="#06b4ef"/>
  </g>
</svg>
